<svg width="40" height="40" viewBox="0 0 40 40" fill="none" xmlns="http://www.w3.org/2000/svg">
    <rect width="40" height="40" rx="20" fill="url(#paint0_radial_73_30570)"/>
    <path d="M27.7508 23.3157C27.5473 22.6096 27.1808 22.004 26.6492 21.5077C26.2854 21.1579 25.7254 20.7757 24.9716 20.371C25.7851 20.303 26.4687 20.1362 27.0213 19.8587C27.5794 19.5792 28.0381 19.2152 28.4043 18.7691C28.7766 18.322 29.0378 17.8174 29.1794 17.2496C29.373 16.4731 29.3209 15.6993 29.0241 14.9309C28.7241 14.1618 28.1948 13.4999 27.427 12.9413C27.1323 12.7241 26.7653 12.5238 26.352 12.3327L27.1067 9.30565L24.2048 8.58211L23.5007 11.4059L21.6318 10.9399L22.3358 8.11613L19.4323 7.39221L18.7283 10.216L14.296 9.11086L13.7048 11.4818L14.3742 11.6487C14.8262 11.7614 15.1261 11.8811 15.2626 12.0031C15.4003 12.1239 15.4893 12.2632 15.5205 12.4213C15.5532 12.5765 15.5034 12.9096 15.3765 13.4186L12.9906 22.9878C12.8653 23.4906 12.7552 23.7987 12.6525 23.9243C12.5497 24.0532 12.4079 24.1324 12.2273 24.1771C12.051 24.2146 11.7312 24.1747 11.2792 24.062L10.6098 23.8951L10.0193 26.2637L14.4516 27.3688L13.7471 30.1942L16.6507 30.9181L17.3551 28.0928L19.0074 28.5047C19.0801 28.5229 19.1521 28.5408 19.2225 28.5584L18.518 31.3837L21.42 32.1072L22.1843 29.0418C22.6993 29.0714 23.1591 29.0565 23.5609 29.0005C24.6625 28.8499 25.5836 28.4599 26.3237 27.8304C27.0696 27.2008 27.5513 26.428 27.7782 25.5178C27.9664 24.7598 27.9583 24.026 27.7508 23.3157ZM19.8806 13.4394L21.7605 13.9082C22.8584 14.1819 23.6084 14.442 23.9999 14.6874C24.3898 14.9258 24.6615 15.2353 24.805 15.6091C24.952 15.9888 24.9671 16.4046 24.8552 16.8534C24.7474 17.2859 24.5318 17.6374 24.215 17.9123C23.8899 18.1867 23.474 18.3455 22.9641 18.3886C22.4502 18.4374 21.7029 18.34 20.7192 18.0947L18.8393 17.626L19.8806 13.4394ZM22.5475 25.3731C22.1042 25.7119 21.6338 25.8962 21.1166 25.9084C20.6084 25.9246 19.9876 25.8429 19.258 25.6609L18.0052 25.3486C17.5892 25.2449 17.3395 25.1569 17.2545 25.0883C17.1682 25.0245 17.1246 24.9264 17.1098 24.8023C17.1041 24.702 17.1561 24.3902 17.2836 23.8588L18.2097 20.1444L20.429 20.6977C21.4096 20.9422 22.1035 21.2107 22.5351 21.5119C22.9633 21.8097 23.2575 22.1654 23.3995 22.5788C23.5524 22.9882 23.5682 23.4448 23.4403 23.9577C23.2911 24.5593 22.9943 25.0268 22.5475 25.3731Z" fill="white"/>
    <defs>
        <radialGradient id="paint0_radial_73_30570" cx="0" cy="0" r="1" gradientUnits="userSpaceOnUse" gradientTransform="translate(20 -6.66667) rotate(90) scale(30.8333 30.5657)">
            <stop stop-color="#F4DFBB"/>
            <stop offset="1" stop-color="#EFB404"/>
        </radialGradient>
    </defs>
</svg>
