<svg width="51" height="51" viewBox="0 0 51 51" fill="none" xmlns="http://www.w3.org/2000/svg">
<rect x="0.339844" y="0.546875" width="50" height="50" rx="25" fill="url(#paint0_radial_10153_17558)"/>
<rect x="0.339844" y="0.546875" width="50" height="50" rx="25" fill="white" fill-opacity="0.1"/>
<g clip-path="url(#clip0_10153_17558)">
<rect x="22.8672" y="10.9736" width="3.07759" height="3.71433" transform="rotate(13 22.8672 10.9736)" fill="white"/>
<rect x="27.918" y="12.1396" width="3.07759" height="3.71433" transform="rotate(13 27.918 12.1396)" fill="white"/>
<rect x="17.4219" y="34.5645" width="3.07759" height="3.71433" transform="rotate(13 17.4219 34.5645)" fill="white"/>
<rect x="22.5469" y="35.748" width="3.07759" height="3.71433" transform="rotate(13 22.5469 35.748)" fill="white"/>
<path fill-rule="evenodd" clip-rule="evenodd" d="M20.2824 12.8058C20.1081 12.7946 19.9479 12.8874 19.8647 13.0478C19.7769 13.2172 19.0971 16.1644 19.1067 16.3344C19.1142 16.468 19.1716 16.5714 19.2961 16.6754L19.382 16.7472L23.9974 17.8127L31.2846 19.495L31.4125 19.4668C31.5672 19.4325 31.5984 19.4113 31.6981 19.2725L31.7756 19.1646L32.1352 17.6071C32.5283 15.9042 32.5052 16.0391 32.4457 15.7977C32.429 15.73 32.2823 15.5873 32.1907 15.5496C32.0971 15.511 20.3847 12.8123 20.2824 12.8058ZM18.1929 21.5833C18.0571 21.5826 17.9171 21.6708 17.8459 21.8019C17.7467 21.9843 14.8581 34.5192 14.8711 34.7105C14.8815 34.8615 14.9124 34.9238 15.032 35.0344L15.1177 35.1137L23.2957 37.0018L30.4482 38.6531L30.5273 38.6276C30.8356 38.5285 30.7961 38.6353 31.2382 36.7028C31.6632 34.8448 31.6491 34.9882 31.4279 34.7805L31.3448 34.7024L25.9996 33.4583C20.3646 32.1484 19.6275 31.9736 19.6173 31.9443C19.6101 31.9237 19.8473 30.8725 20.2461 29.158L20.8865 26.4048L20.9501 26.3768L21.0137 26.3489L25.6205 27.4023C29.8714 28.3744 30.2315 28.4542 30.2819 28.4348C30.4113 28.385 30.4839 28.3268 30.5384 28.2294C30.6303 28.065 31.3216 25.0501 31.3046 24.8878C31.2923 24.7704 31.2281 24.6439 31.1511 24.5855C31.0946 24.5426 18.3245 21.584 18.1929 21.5833Z" fill="white" stroke="white" stroke-width="0.42913"/>
</g>
<defs>
<radialGradient id="paint0_radial_10153_17558" cx="0" cy="0" r="1" gradientUnits="userSpaceOnUse" gradientTransform="translate(12.1107 4.08854) rotate(64.4069) scale(49.4335)">
<stop stop-color="#FFDB77"/>
<stop offset="0.168269" stop-color="#FFCC40"/>
<stop offset="0.620192" stop-color="#FF8543"/>
<stop offset="1" stop-color="#F76F26"/>
</radialGradient>
<clipPath id="clip0_10153_17558">
<rect width="20" height="29.4737" fill="white" transform="translate(19 9) rotate(13)"/>
</clipPath>
</defs>
</svg>
