<svg width="50" height="51" viewBox="0 0 50 51" fill="none" xmlns="http://www.w3.org/2000/svg">
    <rect y="0.546387" width="50" height="50" rx="25" fill="url(#paint0_radial_9834_12171)" />
    <g clip-path="url(#clip0_9834_12171)">
        <path fill-rule="evenodd" clip-rule="evenodd"
            d="M27.3239 11.2355C27.3106 11.2571 27.3262 11.2747 27.3585 11.2747C27.3908 11.2747 27.4281 11.2571 27.4415 11.2355C27.4548 11.214 27.4392 11.1963 27.4069 11.1963C27.3746 11.1963 27.3372 11.214 27.3239 11.2355ZM23.6011 16.4083C23.558 16.4268 23.4695 16.4431 23.4046 16.4447C23.3396 16.4462 23.1972 16.4801 23.0879 16.52C22.9788 16.5599 22.7826 16.6047 22.652 16.6195C22.5213 16.6342 22.3159 16.6809 22.1956 16.7232C22.0752 16.7655 21.9334 16.8001 21.8804 16.8001C21.8274 16.8001 21.7343 16.819 21.6737 16.8422C21.4154 16.9405 20.4256 17.0832 20.0591 17.0748C19.9091 17.0715 19.7759 17.1008 19.5982 17.1763C19.2835 17.3101 18.9458 17.2681 18.901 17.0898C18.8584 16.9199 18.6654 17.0311 18.0607 17.5742C15.1848 20.1561 13.8924 24.4608 14.7885 28.4735C15.0405 29.6015 15.6123 30.9027 16.1073 31.4742L16.2416 31.6293L16.5831 31.6375C17.0143 31.6479 17.0083 31.6694 16.7604 31.0018C15.7826 28.3675 15.5799 26.5573 16.0215 24.4053C16.6527 21.3305 18.6437 18.7327 21.4779 17.2861C22.097 16.97 23.184 16.6061 23.5129 16.6047C23.5722 16.6044 23.656 16.5689 23.6991 16.5258C23.8347 16.3902 23.7841 16.3296 23.6011 16.4083ZM17.3441 16.6794C17.337 16.6993 17.1988 16.7779 17.0372 16.8541C16.8755 16.9302 16.6463 17.0463 16.5278 17.1119C16.4092 17.1775 16.2801 17.2312 16.2408 17.2312C16.2016 17.2312 16.1431 17.2575 16.111 17.2896C16.0693 17.3314 15.9612 17.3488 15.7318 17.3505C15.5553 17.3519 15.35 17.354 15.2755 17.3552C15.1748 17.357 15.1193 17.3313 15.0583 17.255L14.9766 17.1524L14.8362 17.2996C14.2598 17.9039 13.4176 19.4875 12.9553 20.8364C11.8853 23.9585 11.9782 27.9274 13.1842 30.6137C13.5596 31.4499 13.8471 31.8458 14.0341 31.7835C14.08 31.7682 14.2586 31.7544 14.4306 31.7529C14.8311 31.7494 14.8285 31.8153 14.4731 30.7083C12.7561 25.3594 13.5336 21.2258 17.0255 17.1377C17.348 16.7601 17.4302 16.6434 17.3735 16.6434C17.3646 16.6434 17.3514 16.6596 17.3441 16.6794ZM13.388 17.1546C13.3101 17.1948 13.1785 17.2936 13.0958 17.3738C12.9248 17.54 12.6424 17.5802 12.2189 17.4986C11.9633 17.4494 11.9473 17.4639 11.6322 18.0337C9.68904 21.5456 9.42061 27.223 11.0232 30.9148C11.3876 31.7544 11.6169 32.0445 11.8587 31.9721C11.9423 31.947 12.1189 31.9265 12.251 31.9265H12.4914V31.7919C12.4914 31.7178 12.4045 31.3784 12.2983 31.0375C10.6634 25.7898 10.9659 22.2213 13.4508 17.4406C13.6003 17.1528 13.5791 17.056 13.388 17.1546ZM20.0986 20.6224C18.4775 20.9659 18.2544 21.0976 17.8097 21.9734C16.3429 24.8626 16.4258 28.5514 18.0115 30.9507C18.618 31.8684 18.8182 31.7778 18.4527 30.7509C17.1119 26.9835 17.8734 23.2428 20.4563 20.9086C20.9186 20.4908 20.877 20.4575 20.0986 20.6224ZM18.7138 26.019C18.6442 26.141 18.6457 27.7171 18.716 28.1449C18.8751 29.1137 19.2079 30.0345 19.6758 30.7999C19.9343 31.2227 19.9584 31.1543 19.7827 30.4962C19.4516 29.2558 19.3713 27.6518 19.5843 26.5331C19.7041 25.9037 19.7216 25.9308 19.1951 25.9308C18.7893 25.9308 18.7612 25.9359 18.7138 26.019ZM19.0358 34.6048C19.0358 35.2951 21.8456 36.9636 23.8031 37.4357C24.4265 37.5861 24.5293 37.5995 24.1975 37.4873C22.6805 36.9741 21.341 36.2506 19.8656 35.1475C19.0155 34.5118 19.0358 34.5251 19.0358 34.6048ZM16.8478 35.1296C16.8634 35.3098 16.8052 35.33 16.5892 35.2197C15.9738 34.9055 17.3162 36.2371 18.3892 37.0052C21.3159 39.1005 25.3888 39.9416 29.1042 39.2181C29.5403 39.1332 29.7591 39.0271 29.4008 39.0743C27.8059 39.2844 25.8605 39.239 24.4044 38.9576C21.8281 38.4599 19.209 37.0971 17.1277 35.1713C16.8804 34.9425 16.8311 34.9351 16.8478 35.1296ZM14.4226 35.326C14.4335 35.5117 14.2929 35.5466 14.0756 35.4124C13.6738 35.1641 14.0583 35.7045 14.9269 36.6091C19.1841 41.0424 25.8794 42.4186 31.8501 40.0877C33.7982 39.3272 35.5487 38.1771 37.2316 36.5523C37.465 36.3269 37.6938 36.0888 37.74 36.0233C37.7861 35.9577 37.4964 36.2146 37.0963 36.5942C32.2503 41.1917 24.8536 42.0258 18.8202 38.6553C17.5599 37.9512 16.3596 37.0268 15.1013 35.791C14.4171 35.1191 14.4102 35.1143 14.4226 35.326Z"
            fill="white" />
        <path fill-rule="evenodd" clip-rule="evenodd"
            d="M24.9535 10.9612C16.2473 12.029 10.5672 20.05 12.4306 28.6455C13.2923 32.6209 16.5482 36.5703 20.4274 38.3459C24.4018 40.165 29.9732 39.9701 33.1878 37.8997C33.3522 37.7938 33.5462 37.6732 33.6189 37.6317C33.8237 37.5148 33.6596 37.5064 33.431 37.622C29.5993 39.5601 24.8638 39.5562 20.9564 37.6118C16.4572 35.3728 13.893 31.3168 13.7177 26.1616C13.4922 19.5289 19.0495 13.6333 25.5335 13.6268C26.0646 13.6263 26.0847 13.6136 26.4975 13.0191C26.6867 12.7467 27.0692 12.2127 27.3475 11.8326C27.8743 11.1131 27.9112 11.0356 27.7652 10.9549C27.6072 10.8677 25.6806 10.872 24.9535 10.9612ZM16.9555 11.3198C16.1652 11.8302 15.0277 12.8309 14.1997 13.744C9.54216 18.8805 8.46509 26.7254 11.6331 32.4364C11.7228 32.5981 11.9027 32.9239 12.0328 33.1605C15.6953 39.8174 23.802 42.9659 31.0167 40.5336C34.1947 39.4623 37.4034 37.1433 38.9851 34.7747C39.2846 34.3262 39.1132 34.1222 38.7738 34.5232C38.6781 34.6363 38.4359 34.9229 38.2356 35.16C33.4416 40.8369 25.5229 42.223 18.9382 38.5378C16.3023 37.0626 13.8429 34.4672 12.8632 32.1269C10.0167 25.3271 11.5738 18.1858 16.8321 13.924C17.4845 13.3951 17.4295 13.5429 17.4295 12.3194C17.4295 10.9967 17.4357 11.0096 16.9555 11.3198ZM27.4419 11.236C27.4286 11.2575 27.3913 11.2752 27.3589 11.2752C27.3266 11.2752 27.311 11.2575 27.3244 11.236C27.3377 11.2144 27.375 11.1968 27.4073 11.1968C27.4397 11.1968 27.4553 11.2144 27.4419 11.236ZM24.9339 14.1379C17.6474 14.8477 12.7595 22.1245 14.8477 29.1536C15.5215 31.4217 17.5007 34.0876 19.6632 35.64C21.8513 37.2108 24.7062 38.1225 27.0064 37.9853C27.7487 37.941 27.7105 37.88 26.8933 37.805C18.9764 37.0785 13.9326 29.6013 16.6904 22.6793C17.8154 19.8555 20.2509 17.691 23.1299 16.9565C23.9167 16.7557 23.8179 16.8292 24.3564 16.0458C24.6119 15.6743 24.9918 15.1286 25.2007 14.8332C25.5989 14.27 25.6281 14.2033 25.5047 14.1372C25.4219 14.093 25.3952 14.093 24.9339 14.1379ZM23.7779 16.4087C23.7779 16.4865 23.6188 16.6047 23.5134 16.6052C23.1845 16.6065 22.0974 16.9705 21.4784 17.2865C18.6441 18.7331 16.6531 21.331 16.022 24.4058C15.5804 26.5578 15.7831 28.368 16.7609 31.0023C17.0087 31.6699 17.0147 31.6484 16.5836 31.638L16.242 31.6298L16.1077 31.4747C15.6128 30.9032 15.0409 29.602 14.789 28.474C13.8929 24.4613 15.1853 20.1565 18.0611 17.5747C18.6659 17.0316 18.8589 16.9204 18.9015 17.0903C18.9463 17.2686 19.284 17.3105 19.5986 17.1768C19.7764 17.1013 19.9096 17.072 20.0596 17.0753C20.4261 17.0837 21.4159 16.941 21.6741 16.8426C21.7348 16.8195 21.8278 16.8006 21.8808 16.8006C21.9338 16.8006 22.0757 16.766 22.1961 16.7237C22.3164 16.6814 22.5217 16.6347 22.6524 16.62C22.783 16.6052 22.9793 16.5604 23.0884 16.5205C23.1976 16.4806 23.3401 16.4467 23.405 16.4452C23.47 16.4436 23.5584 16.4273 23.6016 16.4087C23.7098 16.3622 23.7779 16.3622 23.7779 16.4087ZM17.3903 16.6778C17.3903 16.6964 17.2263 16.9036 17.026 17.1382C15.4492 18.9841 14.5647 20.5888 14.026 22.5808C13.3203 25.19 13.4484 27.5148 14.4735 30.7088C14.8289 31.8158 14.8316 31.7499 14.4311 31.7534C14.2591 31.7549 14.0805 31.7687 14.0345 31.784C13.8476 31.8463 13.5601 31.4504 13.1846 30.6142C11.9786 27.9279 11.8858 23.959 12.9558 20.8369C13.4181 19.488 14.2602 17.9044 14.8367 17.3001L14.9771 17.1529L15.0588 17.2555C15.1197 17.3318 15.1753 17.3575 15.276 17.3557C15.3504 17.3545 15.5558 17.3524 15.7322 17.351C15.9617 17.3492 16.0697 17.3319 16.1115 17.2901C16.1436 17.2579 16.2021 17.2317 16.2413 17.2317C16.2805 17.2317 16.4097 17.178 16.5282 17.1124C16.6468 17.0468 16.876 16.9307 17.0376 16.8546C17.1993 16.7784 17.3374 16.6998 17.3446 16.6799C17.3611 16.6344 17.3903 16.633 17.3903 16.6778ZM13.4513 17.441C10.9663 22.2218 10.6639 25.7903 12.2988 31.038C12.405 31.3789 12.4919 31.7183 12.4919 31.7924V31.927H12.2515C12.1193 31.927 11.9428 31.9475 11.8591 31.9725C11.6173 32.0449 11.3881 31.7549 11.0236 30.9153C9.42107 27.2235 9.6895 21.5461 11.6326 18.0341C11.9478 17.4644 11.9637 17.4499 12.2193 17.4991C12.6429 17.5806 12.9252 17.5405 13.0963 17.3743C13.4731 17.0084 13.6581 17.0432 13.4513 17.441ZM20.0355 20.485C19.1372 20.6712 18.2565 20.9829 18.089 21.1737C17.7658 21.5426 17.1324 23.0772 16.902 24.0503C16.1045 27.4169 17.0582 30.6625 19.6237 33.3125C20.5191 34.2373 22.11 35.3755 22.5075 35.3755C22.6206 35.3755 22.5499 35.3089 22.082 34.9748C19.8639 33.3913 18.7332 31.759 18.179 29.3406C17.4427 26.1281 18.1906 23.3987 20.4163 21.1753C20.8273 20.7647 21.0734 20.4901 21.0657 20.4503C21.0455 20.3441 20.6513 20.3575 20.0355 20.485ZM20.7605 20.5791C20.7605 20.6096 20.6238 20.7582 20.4568 20.9091C17.8739 23.2432 17.1124 26.984 18.4532 30.7514C18.755 31.5996 18.7433 31.7639 18.4041 31.4355C16.9874 30.0633 16.3741 26.6716 17.0581 23.9915C17.315 22.9849 17.9065 21.604 18.2189 21.2818C18.5123 20.9791 20.7605 20.3575 20.7605 20.5791ZM18.7578 25.8155C18.5887 25.882 18.556 26.0152 18.5362 26.7151C18.4976 28.0868 18.7596 29.2999 19.3483 30.4743C19.8481 31.4712 20.5431 32.3035 20.2921 31.6044C19.7658 30.1387 19.633 29.5006 19.5964 28.2607C19.5726 27.4528 19.6116 26.9664 19.7467 26.3897C19.8304 26.0321 19.8236 25.8777 19.7224 25.8389C19.6046 25.7938 18.8591 25.7756 18.7578 25.8155ZM19.6509 25.9948C19.6643 26.0297 19.6345 26.2721 19.5847 26.5336C19.3718 27.6523 19.4521 29.2563 19.7831 30.4966C19.9589 31.1548 19.9348 31.2232 19.6762 30.8004C19.2083 30.035 18.8755 29.1142 18.7164 28.1454C18.6462 27.7176 18.6446 26.1414 18.7143 26.0195C18.7809 25.9029 19.6072 25.8811 19.6509 25.9948ZM19.8661 35.148C21.3414 36.251 22.6809 36.9745 24.198 37.4878C24.5297 37.6 24.4269 37.5866 23.8036 37.4362C21.8461 36.9641 19.0362 35.2956 19.0362 34.6053C19.0362 34.5256 19.0159 34.5123 19.8661 35.148ZM17.1282 35.1718C20.0277 37.8547 23.3964 39.1967 27.2264 39.1948C28.2498 39.1943 28.6693 39.1712 29.4013 39.0748C29.7596 39.0276 29.5407 39.1337 29.1047 39.2186C25.0722 40.0038 20.8669 39.0025 17.7444 36.5137C17.2102 36.0879 16.3584 35.2186 16.4176 35.1596C16.4275 35.1497 16.5049 35.1769 16.5896 35.2202C16.8057 35.3305 16.8639 35.3102 16.8483 35.1301C16.8315 34.9356 16.8809 34.943 17.1282 35.1718ZM15.1018 35.7915C16.3601 37.0272 17.5603 37.9517 18.8207 38.6558C24.8541 42.0263 32.2507 41.1922 37.0967 36.5947C37.4969 36.2151 37.7866 35.9582 37.7404 36.0238C37.6332 36.176 36.9097 36.8751 36.4645 37.2565C35.1939 38.3448 34.241 38.9795 32.9334 39.6082C26.7834 42.5654 19.4783 41.3488 14.9274 36.6096C14.0587 35.705 13.6743 35.1646 14.0761 35.4129C14.2933 35.5471 14.4339 35.5122 14.4231 35.3265C14.4106 35.1148 14.4176 35.1196 15.1018 35.7915Z"
            fill="white" />
    </g>
    <defs>
        <radialGradient id="paint0_radial_9834_12171" cx="0" cy="0" r="1"
            gradientUnits="userSpaceOnUse"
            gradientTransform="translate(25 0.546387) rotate(90) scale(32.5)">
            <stop stop-color="#E477FA" />
            <stop offset="1" stop-color="#90192B" />
        </radialGradient>
        <clipPath id="clip0_9834_12171">
            <rect width="37.0322" height="37.0322" fill="white"
                transform="translate(6.49609 7.04053)" />
        </clipPath>
    </defs>
</svg>
    