<svg width="50" height="51" viewBox="0 0 50 51" fill="none" xmlns="http://www.w3.org/2000/svg">
<rect x="-0.164062" y="0.546875" width="50" height="50" rx="25" fill="url(#paint0_radial_10161_5174)"/>
<path d="M17.6328 13.9883C17.8712 13.9883 18.0645 14.1815 18.0645 14.4199V21.8945C18.0645 22.0187 18.1335 22.1331 18.2432 22.1914L19.8662 23.0537C19.9734 23.1106 20.1029 23.1057 20.2051 23.04L24.4746 20.2949C24.6122 20.2066 24.7882 20.2034 24.9287 20.2871L29.5654 23.0469C29.6686 23.1082 29.7967 23.1105 29.9014 23.0518L31.4297 22.1934C31.5356 22.1339 31.6016 22.0218 31.6016 21.9004V14.4199C31.6016 14.1815 31.7948 13.9883 32.0332 13.9883H35.0703C35.3087 13.9883 35.502 14.1815 35.502 14.4199V24.1699C35.5018 24.3201 35.4241 24.4597 35.2959 24.5381L24.9326 30.8643C24.7901 30.9511 24.6102 30.9481 24.4707 30.8564L21.6172 28.9736C21.3506 28.7977 21.3605 28.4032 21.6357 28.2412L25.7549 25.8203C25.9775 25.6895 25.9753 25.3669 25.751 25.2393L24.877 24.7432C24.7691 24.6819 24.636 24.6847 24.5312 24.751L18.2207 28.7568C18.1237 28.8184 18.0645 28.9251 18.0645 29.04V36.6729C18.0645 36.9112 17.8712 37.1045 17.6328 37.1045H14.4893C14.2509 37.1045 14.0576 36.9112 14.0576 36.6729V26.9121C14.0578 26.7687 14.1291 26.6348 14.248 26.5547L15.3555 25.8096C15.5551 25.6751 15.5526 25.38 15.3506 25.249L14.2539 24.5381C14.1316 24.4585 14.0577 24.3227 14.0576 24.1768V14.4199C14.0576 14.1815 14.2509 13.9883 14.4893 13.9883H17.6328ZM34.8564 26.5361C35.1442 26.3718 35.502 26.5797 35.502 26.9111V36.6729C35.502 36.9112 35.3087 37.1045 35.0703 37.1045H32.0332C31.7948 37.1045 31.6016 36.9112 31.6016 36.6729V28.6465C31.6017 28.4917 31.6849 28.3493 31.8193 28.2725L34.8564 26.5361Z" fill="white" stroke="white" stroke-width="0.0959201"/>
<defs>
<radialGradient id="paint0_radial_10161_5174" cx="0" cy="0" r="1" gradientUnits="userSpaceOnUse" gradientTransform="translate(11.6068 4.08854) rotate(64.4069) scale(49.4335)">
<stop stop-color="#C4B19F"/>
<stop offset="0.265908" stop-color="#A08472"/>
<stop offset="0.74564" stop-color="#584656"/>
<stop offset="1" stop-color="#3E3548"/>
</radialGradient>
</defs>
</svg>
