<svg width="60" height="60" viewBox="0 0 60 60" fill="none" xmlns="http://www.w3.org/2000/svg">
<rect width="60" height="60" rx="30" fill="url(#paint0_radial_11466_8258)"/>
<rect width="60" height="60" rx="30" fill="url(#paint1_radial_11466_8258)"/>
<path d="M29.4573 25.6876C29.5388 25.6572 29.6257 25.7173 29.626 25.8043L29.6372 29.0088V34.7194C29.6372 34.816 29.5323 34.876 29.449 34.8272L20.146 29.3755C20.0551 29.3222 20.0668 29.1873 20.1656 29.1505L29.4573 25.6876Z" fill="white"/>
<path d="M30.1819 25.6813C30.0999 25.6504 30.0124 25.7111 30.0127 25.7987L30.0235 28.9297V34.7251C30.0235 34.8219 30.1288 34.8819 30.2122 34.8326L39.4147 29.3857C39.5049 29.3323 39.4933 29.1982 39.3952 29.1612L30.1819 25.6813Z" fill="white"/>
<path d="M29.3971 14.2088C29.4657 14.1061 29.6258 14.1543 29.6261 14.2778L29.6341 17.1823L29.6251 25.0926C29.625 25.1449 29.5924 25.1917 29.5433 25.2098L19.985 28.7271C19.8715 28.7689 19.7707 28.6411 19.8379 28.5404L29.3971 14.2088Z" fill="white"/>
<path d="M30.2794 14.2117C30.2109 14.1087 30.0503 14.1572 30.0503 14.281V17.1797V21.1797V25.0781C30.0503 25.1304 30.0829 25.1771 30.1319 25.1953L39.6583 28.7261C39.7718 28.7681 39.8728 28.6405 39.8058 28.5397L30.2794 14.2117Z" fill="white"/>
<path d="M29.4597 45.4081C29.5285 45.5116 29.6898 45.4622 29.6888 45.3379L29.6494 40.3735V36.8192C29.6494 36.7754 29.6264 36.7347 29.5887 36.7121L20.2257 31.0848C20.1115 31.0161 19.9834 31.1501 20.0572 31.2611L29.4597 45.4081Z" fill="white"/>
<path d="M30.2969 45.4015C30.2278 45.5039 30.0679 45.4548 30.0682 45.3313L30.0811 40.4385L30.0765 36.8846C30.0765 36.8405 30.0996 36.7996 30.1375 36.7771L39.6561 31.0969C39.7708 31.0285 39.8985 31.1634 39.8238 31.2741L30.2969 45.4015Z" fill="white"/>
<defs>
<radialGradient id="paint0_radial_11466_8258" cx="0" cy="0" r="1" gradientUnits="userSpaceOnUse" gradientTransform="translate(14.125 4.25) rotate(63.6211) scale(60.2064)">
<stop stop-color="#7F98FA"/>
<stop offset="0.168269" stop-color="#627EEA"/>
<stop offset="0.81162" stop-color="#524651"/>
<stop offset="1" stop-color="#3D3545"/>
</radialGradient>
<radialGradient id="paint1_radial_11466_8258" cx="0" cy="0" r="1" gradientUnits="userSpaceOnUse" gradientTransform="translate(14.125 4.25) rotate(64.4069) scale(59.3202)">
<stop stop-color="#AD957E"/>
<stop offset="0.168269" stop-color="#9B8475"/>
<stop offset="0.620192" stop-color="#524651"/>
<stop offset="1" stop-color="#3D3545"/>
</radialGradient>
</defs>
</svg>
