<svg width="60" height="60" viewBox="0 0 60 60" fill="none" xmlns="http://www.w3.org/2000/svg">
<rect width="60" height="60" rx="30" fill="url(#paint0_radial_11466_8248)"/>
<rect width="60" height="60" rx="30" fill="url(#paint1_radial_11466_8248)"/>
<rect width="60" height="60" rx="30" fill="url(#paint2_radial_11466_8248)"/>
<rect width="60" height="60" rx="30" fill="url(#paint3_radial_11466_8248)"/>
<path d="M40.2781 34.8668C40.0033 33.9136 39.5086 33.0962 38.7909 32.4261C38.4957 32.1422 38.1048 31.8425 37.6188 31.5299C37.3048 31.328 37.4131 30.79 37.7783 30.7125C38.3454 30.5921 38.8505 30.4224 39.2933 30.2C40.0467 29.8227 40.6659 29.3312 41.1603 28.729C41.6629 28.1254 42.0156 27.4442 42.2066 26.6777C42.468 25.6294 42.3977 24.5848 41.997 23.5475C41.5921 22.5091 40.8775 21.6155 39.841 20.8615C39.5121 20.6191 39.1166 20.3924 38.6741 20.1753C38.5106 20.0951 38.4238 19.9115 38.4705 19.7355L39.3108 16.5714C39.3646 16.369 39.2422 16.1619 39.0391 16.1112L35.8489 15.3158C35.6502 15.2663 35.4486 15.3852 35.3958 15.583L34.6356 18.4322C34.5828 18.63 34.3811 18.7489 34.1825 18.6994L32.3873 18.2518C32.184 18.2011 32.0616 17.9937 32.1157 17.7913L32.8696 14.9658C32.9236 14.7634 32.8012 14.556 32.598 14.5053L29.406 13.7094C29.2074 13.6599 29.0058 13.7788 28.953 13.9766L28.1918 16.8295C28.1394 17.0258 27.9401 17.1447 27.7425 17.0976L22.7251 15.9015C22.5251 15.8538 22.324 15.976 22.2742 16.1755L21.6567 18.6524C21.6066 18.8533 21.7289 19.0568 21.9298 19.1069L22.4696 19.2415C23.0798 19.3937 23.2347 19.4302 23.419 19.595C23.6049 19.7579 23.7251 19.946 23.7672 20.1594C23.8114 20.3689 23.7441 20.8186 23.5727 21.5059L20.3518 34.4243C20.1826 35.1031 20.034 35.519 19.8953 35.6885C19.7566 35.8625 19.5651 35.9695 19.3213 36.0298C19.0833 36.0804 19.0266 36.0266 18.4164 35.8744L17.8766 35.7398C17.6757 35.6897 17.4721 35.812 17.422 36.013L16.8048 38.4886C16.7553 38.6873 16.8743 38.889 17.0723 38.9417L21.9614 40.2422C22.1617 40.2954 22.2808 40.501 22.2273 40.7013L21.4714 43.5345C21.4174 43.7369 21.5397 43.9444 21.743 43.9951L24.9349 44.7909C25.1335 44.8404 25.3352 44.7215 25.388 44.5237L26.1487 41.6724C26.2015 41.4746 26.4032 41.3557 26.6018 41.4052L28.4745 41.8721C28.6341 41.9119 28.7301 42.0747 28.6877 42.2336L27.9121 45.1404C27.8581 45.3428 27.9804 45.5502 28.1837 45.6009L31.373 46.3961C31.5719 46.4457 31.7737 46.3265 31.8262 46.1284L32.6848 42.8929C32.7305 42.7208 32.8909 42.6052 33.069 42.611C33.6417 42.6299 34.16 42.6057 34.6217 42.5414C36.1088 42.338 37.3524 41.8116 38.3514 40.9618C39.3584 40.1118 40.0087 39.0685 40.3151 37.8397C40.5691 36.8165 40.5582 35.8259 40.2781 34.8668ZM29.5627 21.8981C29.6128 21.697 29.8163 21.5746 30.0174 21.6247L32.1912 22.1667C33.6733 22.5363 34.6858 22.8874 35.2143 23.2187C35.7407 23.5406 36.1075 23.9584 36.3012 24.463C36.4997 24.9756 36.5201 25.5369 36.369 26.1428C36.2235 26.7266 35.9325 27.2013 35.5047 27.5723C35.0658 27.9428 34.5044 28.1572 33.816 28.2154C33.1223 28.2813 32.1134 28.1497 30.7854 27.8186L28.6112 27.2765C28.4103 27.2264 28.288 27.023 28.338 26.8221L29.5627 21.8981ZM33.2536 37.6444C32.6551 38.1018 32.0201 38.3505 31.3219 38.3671C30.6358 38.3889 29.7977 38.2786 28.8127 38.033L27.1215 37.6113C26.5599 37.4713 26.2229 37.3525 26.108 37.26C25.9916 37.1737 25.9327 37.0413 25.9128 36.8738C25.905 36.7384 25.9752 36.3175 26.1473 35.6001L27.3069 30.9495C27.357 30.7486 27.5605 30.6263 27.7615 30.6764L30.3936 31.3326C31.7174 31.6627 32.6542 32.0252 33.2368 32.4317C33.815 32.8338 34.2121 33.3141 34.4038 33.872C34.6103 34.4247 34.6315 35.0411 34.4588 35.7337C34.2575 36.5458 33.8568 37.1769 33.2536 37.6444Z" fill="white"/>
<defs>
<radialGradient id="paint0_radial_11466_8248" cx="0" cy="0" r="1" gradientUnits="userSpaceOnUse" gradientTransform="translate(14.125 4.25) rotate(63.6211) scale(60.2064)">
<stop stop-color="#FAE77F"/>
<stop offset="0.168269" stop-color="#EABF62"/>
<stop offset="0.81162" stop-color="#524651"/>
<stop offset="1" stop-color="#3D3545"/>
</radialGradient>
<radialGradient id="paint1_radial_11466_8248" cx="0" cy="0" r="1" gradientUnits="userSpaceOnUse" gradientTransform="translate(13.375 2.4375) rotate(58.236) scale(64.4683)">
<stop stop-color="#FFE88E"/>
<stop offset="0.17835" stop-color="#F9CD67"/>
<stop offset="0.455552" stop-color="#F7A457"/>
<stop offset="0.928852" stop-color="#524651"/>
<stop offset="1" stop-color="#3D3545"/>
</radialGradient>
<radialGradient id="paint2_radial_11466_8248" cx="0" cy="0" r="1" gradientUnits="userSpaceOnUse" gradientTransform="translate(13.375 2.4375) rotate(57.6468) scale(69.8419)">
<stop stop-color="#FFE88E"/>
<stop offset="0.17835" stop-color="#F9CD67"/>
<stop offset="0.455552" stop-color="#F79F57"/>
<stop offset="0.928852" stop-color="#524651"/>
<stop offset="1" stop-color="#3D3545"/>
</radialGradient>
<radialGradient id="paint3_radial_11466_8248" cx="0" cy="0" r="1" gradientUnits="userSpaceOnUse" gradientTransform="translate(14.125 4.25) rotate(64.4069) scale(59.3202)">
<stop stop-color="#AD957E"/>
<stop offset="0.168269" stop-color="#9B8475"/>
<stop offset="0.620192" stop-color="#524651"/>
<stop offset="1" stop-color="#3D3545"/>
</radialGradient>
</defs>
</svg>
