<svg width="50" height="51" viewBox="0 0 50 51" fill="none" xmlns="http://www.w3.org/2000/svg">
    <rect y="0.546875" width="50" height="50" rx="25" fill="url(#paint0_radial_9982_5832)" />
    <path fill-rule="evenodd" clip-rule="evenodd"
        d="M17.389 13.8799H18.9467C20.2735 13.8799 20.516 13.8857 20.592 13.9238C20.6388 13.9473 20.706 14.003 20.7381 14.0499C20.7966 14.1261 20.7995 14.17 20.7966 15.0317C20.7966 15.741 20.8053 15.9491 20.8375 16.0135C20.8579 16.0575 20.9106 16.1102 20.9544 16.1308C21.0099 16.1571 21.2905 16.1659 23.0176 16.1659L23.1784 16.0253L23.193 15.0581C23.2076 14.1437 23.2105 14.088 23.2661 14.0264C23.2982 13.9913 23.3596 13.9444 23.4063 13.9209C23.4706 13.8887 23.7716 13.8799 25.0634 13.8799C26.3551 13.8799 26.6561 13.8887 26.7233 13.9209C26.7672 13.9444 26.8285 13.9913 26.8607 14.0264C26.9162 14.088 26.9191 14.1437 26.9338 15.0346C26.9454 15.8054 26.9571 15.9872 26.9922 16.0399C27.0156 16.078 27.077 16.122 27.1237 16.1366C27.1763 16.1542 27.5796 16.1659 28.1261 16.1659C28.6639 16.1659 29.0672 16.1542 29.111 16.1366C29.1519 16.119 29.2045 16.078 29.2279 16.0428C29.26 15.9872 29.2717 15.7996 29.2776 15.0522C29.2863 14.2462 29.2922 14.1202 29.336 14.0557C29.3623 14.0147 29.4266 13.959 29.4821 13.9297C29.5727 13.8799 32.6749 13.8799 32.7212 13.8799C32.7674 13.8799 32.878 13.9971 32.878 13.9971C32.9599 14.0821 32.9774 14.1319 32.9949 14.2902C33.0066 14.3957 33.0125 15.0083 33.0066 15.653C32.9949 16.6466 32.9862 16.8517 32.9423 17.0012C32.916 17.0979 32.8547 17.2621 32.805 17.3676C32.7553 17.4731 32.6676 17.6167 32.6121 17.69C32.5536 17.7632 32.4601 17.8658 32.4017 17.9186C32.3432 17.9713 32.238 18.0563 32.165 18.1091C32.0919 18.1589 31.9516 18.238 31.8523 18.282C31.75 18.326 31.107 18.5546 30.4202 18.7861C29.7305 19.0176 28.8538 19.3166 28.468 19.4485C28.0823 19.5833 27.4043 19.8148 26.963 19.9643C26.5217 20.1138 25.7122 20.3893 25.1657 20.5768C24.6192 20.7673 24.061 20.9578 23.9236 21.0047C23.7863 21.0487 23.269 21.2275 22.7692 21.3975C22.2695 21.5704 21.1794 21.9397 20.3436 22.224C19.5078 22.5053 18.6077 22.8072 18.3417 22.8981C18.0758 22.986 17.7806 23.0768 17.6842 23.0974C17.5673 23.1267 17.4796 23.1325 17.4211 23.1149C17.3714 23.1003 17.3101 23.0768 17.2779 23.0651C17.2487 23.0505 17.199 22.9977 17.1698 22.9508C17.1172 22.8658 17.1172 22.687 17.1113 18.5253C17.1055 14.8617 17.1113 14.173 17.1464 14.0997C17.1698 14.0528 17.2312 13.9825 17.2867 13.9473L17.389 13.8799Z"
        fill="#FDFEFD" fill-opacity="0.99" />
    <path
        d="M32.6537 20.6877L19.5261 25.3067V29.1963C23.0106 28.0618 30.6797 25.4428 31.1464 25.2094C31.6132 24.976 31.9244 24.6584 32.0216 24.5287L32.7018 23.1674C32.9773 22.7136 33.3987 21.698 33.577 21.2225C33.7228 20.8336 33.6742 20.7363 33.5288 20.5905C33.3165 20.3774 32.913 20.5905 32.6537 20.6877Z"
        fill="white" />
    <path
        d="M17.4684 29.98L30.596 25.3611V21.4714C27.1115 22.6059 19.4424 25.2249 18.9757 25.4583C18.5089 25.6917 18.1977 26.0094 18.1005 26.139L17.4203 27.5004C17.1448 27.9542 16.7234 28.9698 16.5451 29.4452C16.3993 29.8342 16.4479 29.9314 16.5933 30.0773C16.8056 30.2903 17.2091 30.0773 17.4684 29.98Z"
        fill="white" />
    <path
        d="M32.6537 27.7326L19.5261 32.3516V36.2412C23.0106 35.1068 30.6797 32.4877 31.1464 32.2543C31.6132 32.021 31.9244 31.7033 32.0216 31.5737L32.7018 30.2123C32.9773 29.7585 33.3987 28.7429 33.577 28.2675C33.7228 27.8785 33.6742 27.7813 33.5288 27.6354C33.3165 27.4223 32.913 27.6354 32.6537 27.7326Z"
        fill="white" />
    <path
        d="M17.4684 37.025L30.596 32.406V28.5164C27.1115 29.6508 19.4424 32.2699 18.9757 32.5033C18.5089 32.7366 18.1977 33.0543 18.1005 33.1839L17.4203 34.5453C17.1448 34.9991 16.7234 36.0147 16.5451 36.4901C16.3993 36.8791 16.4479 36.9763 16.5933 37.1222C16.8056 37.3353 17.2091 37.1222 17.4684 37.025Z"
        fill="white" />
    <defs>
        <radialGradient id="paint0_radial_9982_5832" cx="0" cy="0" r="1"
            gradientUnits="userSpaceOnUse"
            gradientTransform="translate(15.625 2.73437) rotate(66.6075) scale(40.4043)">
            <stop stop-color="#48FFBD" />
            <stop offset="0.528846" stop-color="#6F77D9" />
            <stop offset="1" stop-color="#A040BC" />
        </radialGradient>
    </defs>
</svg>